<?xml version="1.0" encoding="UTF-8" standalone="no"?>
<svg
   xmlns:dc="http://purl.org/dc/elements/1.1/"
   xmlns:cc="http://creativecommons.org/ns#"
   xmlns:rdf="http://www.w3.org/1999/02/22-rdf-syntax-ns#"
   xmlns:svg="http://www.w3.org/2000/svg"
   xmlns="http://www.w3.org/2000/svg"
   id="svg39"
   xml:space="preserve"
   viewBox="0 0 550 445"
   height="445"
   width="550"
   version="1.1"><metadata
     id="metadata43"><rdf:RDF><cc:Work
         rdf:about=""><dc:format>image/svg+xml</dc:format><dc:type
           rdf:resource="http://purl.org/dc/dcmitype/StillImage" /></cc:Work></rdf:RDF></metadata><defs
     id="defs4"><style
       id="style2"
       type="text/css">@import url(&quot;https://fonts.googleapis.com/css2?family=Pirata+One:wght@400&quot;);</style></defs><defs
     id="defs6" /><g
     id="icon"
     transform="matrix(0.2 0 0 0.2 140.1 222.5)"><g
       id="g28"
       style=""><g
         id="icon_piece"
         transform="matrix(1 0 0 1 -38.12 -0.5)"><linearGradient
           y2="473"
           x2="395.762"
           y1="0"
           x1="0"
           gradientTransform="matrix(1 0 0 1 20 19)"
           gradientUnits="userSpaceOnUse"
           id="SVGID_5"><stop
             id="stop8"
             style="stop-color:rgb(206,225,242);stop-opacity: 1"
             offset="0%" /></linearGradient><path
           id="path11"
           stroke-linecap="round"
           d="m 415.762 462.238 l -14.238 14.238 l -70.109 -70.109 c -17.403 -17.403 -29.264 -39.569 -34.088 -63.703 l -11.327 -56.664 l 56.664 11.326 c 1.911 0.382 3.805 0.824 5.69 1.294 l 14.972 81.567 c 4.824 24.135 16.685 46.3 34.088 63.704 z m -335.762 -70.238 v -272 c 0 -55.229 44.771 -100 100 -100 l 211.95 -0.779 l 0.05 -0.221 l -272 1 c -55.229 0 -100 44.771 -100 100 v 272 c 0 55.228 44.771 100 100 100 l 52.058 -0.314 c -51.515 -4.048 -92.058 -47.131 -92.058 -99.686 z"
           transform=" translate(-217.88, -255.5)"
           style="stroke: none; stroke-width: 1; stroke-dasharray: none; stroke-linecap: butt; stroke-dashoffset: 0; stroke-linejoin: miter; stroke-miterlimit: 4; fill: #000000; fill-rule: nonzero; opacity: 1;" /></g><g
         id="g19"
         transform="matrix(1 0 0 1 0 0)"><linearGradient
           y2="512"
           x2="512"
           y1="0"
           x1="0"
           gradientTransform="matrix(1 0 0 1 0 0)"
           gradientUnits="userSpaceOnUse"
           id="SVGID_6"><stop
             id="stop14"
             style="stop-color:rgb(20,40,191);stop-opacity: 1"
             offset="0%" /></linearGradient><path
           id="path17"
           stroke-linecap="round"
           d="m 310 512 h -190 c -66.168 0 -120 -53.832 -120 -120 v -272 c 0 -66.168 53.832 -120 120 -120 h 272 c 66.168 0 120 53.832 120 120 v 191.5 c 0 11.046 -8.954 20 -20 20 s -20 -8.954 -20 -20 v -191.5 c 0 -44.112 -35.888 -80 -80 -80 h -272 c -44.112 0 -80 35.888 -80 80 v 272 c 0 44.112 35.888 80 80 80 h 190 c 11.046 0 20 8.954 20 20 s -8.954 20 -20 20 z m 180.619 -21.382 c 28.462 -28.462 28.462 -74.774 0 -103.237 l -70.109 -70.108 c -20.263 -20.264 -45.827 -33.942 -73.926 -39.559 l -56.664 -11.326 c -6.554 -1.313 -13.334 0.742 -18.062 5.47 c -4.728 4.729 -6.78 11.506 -5.47 18.063 l 11.326 56.664 c 5.617 28.1 19.296 53.662 39.558 73.926 l 70.109 70.108 c 13.788 13.787 32.12 21.381 51.619 21.381 s 37.831 -7.594 51.619 -21.382 z m -151.875 -173.68 c 20.329 4.063 38.822 13.958 53.481 28.618 l 70.109 70.108 c 12.867 12.867 12.867 33.803 0 46.67 c -6.232 6.233 -14.52 9.666 -23.334 9.666 s -17.102 -3.433 -23.334 -9.666 l -70.109 -70.108 c -14.659 -14.66 -24.555 -33.153 -28.618 -53.481 l -5.447 -27.253 z"
           transform=" translate(-256, -256)"
           style="stroke: none; stroke-width: 1; stroke-dasharray: none; stroke-linecap: butt; stroke-dashoffset: 0; stroke-linejoin: miter; stroke-miterlimit: 4; fill: #000000; fill-rule: nonzero; opacity: 1;" /></g><g
         id="g26"
         transform="matrix(1 0 0 1 0 -53.5)"><linearGradient
           y2="207"
           x2="312"
           y1="0"
           x1="0"
           gradientTransform="matrix(1 0 0 1 100 99)"
           gradientUnits="userSpaceOnUse"
           id="SVGID_7"><stop
             id="stop21"
             style="stop-color:rgb(255,92,240);stop-opacity: 1"
             offset="0%" /></linearGradient><path
           id="path24"
           stroke-linecap="round"
           d="m 392 146 h -183 c -11.046 0 -20 -8.954 -20 -20 s 8.954 -20 20 -20 h 183 c 11.046 0 20 8.954 20 20 s -8.954 20 -20 20 z m 20 60 c 0 -11.046 -8.954 -20 -20 -20 h -272 c -11.046 0 -20 8.954 -20 20 s 8.954 20 20 20 h 272 c 11.046 0 20 -8.954 20 -20 z m -200 80 c 0 -11.046 -8.954 -20 -20 -20 h -72 c -11.046 0 -20 8.954 -20 20 s 8.954 20 20 20 h 72 c 11.046 0 20 -8.954 20 -20 z m -112 -162 c 0 13.807 11.193 25 25 25 s 25 -11.193 25 -25 s -11.193 -25 -25 -25 s -25 11.193 -25 25 z"
           transform=" translate(-256, -202.5)"
           style="stroke: none; stroke-width: 1; stroke-dasharray: none; stroke-linecap: butt; stroke-dashoffset: 0; stroke-linejoin: miter; stroke-miterlimit: 4; fill: #000000; fill-rule: nonzero; opacity: 1;" /></g></g></g><g
     id="logo-name"
     style=""
     transform="matrix(2.39 0 0 2.39 340.7 223.7)"><linearGradient
       y2="33.89999999999999"
       x2="0"
       y1="0"
       x1="0"
       gradientTransform="matrix(1 0 0 1 -51.12 -16.95)"
       gradientUnits="userSpaceOnUse"
       id="SVGID_2"><stop
         id="stop31"
         style="stop-color:rgb(10,10,67);stop-opacity: 1"
         offset="0%" /></linearGradient><text
       id="text36"
       style="stroke: none; stroke-width: 1; stroke-dasharray: none; stroke-linecap: butt; stroke-dashoffset: 0; stroke-linejoin: miter; stroke-miterlimit: 4; fill: #000000; fill-rule: nonzero; opacity: 1; white-space: pre;"
       font-weight="normal"
       font-style="normal"
       font-size="30"
       font-family="Pirata One"
       xml:space="preserve"><tspan
         id="tspan34"
         y="9.42"
         x="-51.12">Mide Blog</tspan></text>
</g></svg>